<?xml version="1.0" encoding="UTF-8"?> <svg xmlns="http://www.w3.org/2000/svg" width="14" height="27" viewBox="0 0 14 27" fill="none"><path fill-rule="evenodd" clip-rule="evenodd" d="M0 0H14V26.88H10.9725C11.0214 26.8157 11.0584 26.75 11.083 26.6833L11.1026 26.6441V21.7357V21.6433C11.1026 21.0125 10.005 20.4736 8.34078 20.1651C7.79403 20.0453 7.36008 19.9793 7.28595 19.9683C7.47777 19.9415 10.8895 19.4469 10.8895 18.127C10.8895 16.9118 6.94434 16.6038 6.94434 16.6038C6.94434 16.6038 10.8363 15.9598 10.8363 14.837C10.8363 13.9466 6.69234 13.2858 6.69234 13.2858C6.69234 13.2858 10.7383 12.7258 10.7383 11.5078C10.7383 10.4718 6.98634 9.92025 6.98634 9.92025C6.98634 9.92025 10.6291 9.53945 10.6291 8.21785C10.6291 7.20145 6.79034 6.55185 6.79034 6.55185C6.79034 6.55185 10.5955 6.08425 10.5955 4.92225C10.5955 3.41025 5.56674 3.06025 5.56674 3.06025L4.78274 4.03185C4.78274 4.03185 8.22394 4.34545 8.22394 4.88585C8.22394 5.37412 1.36642 5.86467 0 5.9589V0ZM8.11194 18.1606C8.11194 18.8162 1.25201 19.4013 0 19.4939V17.3697C0.308526 17.3893 0.834286 17.408 1.47467 17.4308H1.47469C3.94235 17.5185 8.11194 17.6669 8.11194 18.1606ZM8.11194 14.9434C8.11194 15.5859 1.30873 16.1099 0 16.2014V13.907C0.313878 13.9344 0.806024 13.9668 1.39646 14.0057C3.88276 14.1696 8.11194 14.4483 8.11194 14.9434ZM8.17914 11.575C8.17914 12.191 1.46792 12.6311 0 12.7208V10.6494C0.563446 10.7237 1.59647 10.7839 2.74319 10.8508L2.74324 10.8508C5.20024 10.9941 8.17914 11.1678 8.17914 11.575ZM8.11194 8.21225C8.11194 8.84757 1.69917 9.30095 0 9.4096V7.14142C0.299503 7.16879 0.780198 7.20214 1.36201 7.24251L1.36205 7.24251C3.82847 7.41364 8.11194 7.71085 8.11194 8.21225Z" fill="#3D3D3D"></path></svg> 